<svg width="512" height="512" viewBox="0 0 512 512" fill="none" xmlns="http://www.w3.org/2000/svg">
  <defs>
    <linearGradient id="gold" x1="24" y1="24" x2="488" y2="488" gradientUnits="userSpaceOnUse">
      <stop stop-color="#FFF3AE"/>
      <stop offset="0.48" stop-color="#F4D85E"/>
      <stop offset="1" stop-color="#C89A1D"/>
    </linearGradient>
    <linearGradient id="greenPanel" x1="0" y1="0" x2="512" y2="512" gradientUnits="userSpaceOnUse">
      <stop stop-color="#18382E"/>
      <stop offset="1" stop-color="#0C2119"/>
    </linearGradient>
  </defs>

  <rect width="512" height="512" fill="url(#greenPanel)"/>
  <rect x="10" y="10" width="492" height="492" stroke="url(#gold)" stroke-width="20"/>
  <rect x="26" y="26" width="460" height="460" stroke="url(#gold)" stroke-width="6" opacity="0.95"/>

  <g transform="translate(-108 -98) scale(1.56)" fill="url(#gold)">
    <path d="M262 130C262 125.582 258.418 122 254 122C249.582 122 246 125.582 246 130V168H208C203.582 168 200 171.582 200 176C200 180.418 203.582 184 208 184H246V222C246 226.418 249.582 230 254 230C258.418 230 262 226.418 262 222V184H300C304.418 184 308 180.418 308 176C308 171.582 304.418 168 300 168H262V130Z"/>
    <path d="M148.5 212.5C146.46 210.755 143.392 210.995 141.647 213.036C139.901 215.076 140.142 218.144 142.182 219.89L184.182 255.89C186.223 257.635 189.291 257.395 191.036 255.354C192.782 253.314 192.541 250.246 190.501 248.5L148.5 212.5Z"/>
    <path d="M365.818 213.036C364.073 210.995 361.005 210.755 358.964 212.5L316.964 248.5C314.924 250.246 314.683 253.314 316.429 255.354C318.174 257.395 321.242 257.635 323.283 255.89L365.283 219.89C367.323 218.144 367.564 215.076 365.818 213.036Z"/>
    <circle cx="188" cy="158" r="3"/>
    <circle cx="206" cy="136" r="4"/>
    <circle cx="222" cy="180" r="3"/>
    <circle cx="320" cy="158" r="3"/>
    <circle cx="302" cy="136" r="4"/>
    <circle cx="286" cy="180" r="3"/>
    <circle cx="230" cy="138" r="5"/>
    <circle cx="278" cy="138" r="5"/>
    <circle cx="254" cy="154" r="4"/>
    <path d="M253.477 214.612C255.872 213.129 258.873 213.129 261.268 214.612L339.268 262.916C342.924 265.18 344.052 269.981 341.788 273.638C339.523 277.294 334.722 278.422 331.066 276.158L257.372 230.505L183.679 276.158C180.022 278.422 175.221 277.294 172.957 273.638C170.693 269.981 171.82 265.18 175.477 262.916L253.477 214.612Z"/>
    <path d="M247 246.094C251.26 243.455 256.74 243.455 261 246.094L327.5 287.287C330.714 289.278 332.667 292.794 332.667 296.575V364C332.667 368.418 329.085 372 324.667 372H186.333C181.915 372 178.333 368.418 178.333 364V296.575C178.333 292.794 180.286 289.278 183.5 287.287L247 246.094ZM209.667 302.14V341.333H238.667V296.667C238.667 287.462 246.129 280 255.333 280C264.538 280 272 287.462 272 296.667V341.333H301.333V302.14L254 272.813L209.667 302.14Z"/>
    <path d="M165.167 287.333C165.167 280.798 160.756 275.333 155.318 275.333C149.88 275.333 145.469 280.798 145.469 287.333C145.469 302.758 153.403 317.252 167.068 325.277V339.333C151.166 331.638 140.333 315.231 140.333 296.486C140.333 288.926 143.585 280.476 148.515 274.605C153.561 268.596 160.078 265 167.167 265C174.255 265 180.772 268.596 185.818 274.605C190.748 280.476 194 288.926 194 296.486C194 315.231 183.167 331.638 167.264 339.333V325.277C180.93 317.252 188.864 302.758 188.864 287.333C188.864 280.798 184.453 275.333 179.015 275.333C173.577 275.333 169.167 280.798 169.167 287.333Z"/>
    <path d="M345.318 275.333C339.88 275.333 335.469 280.798 335.469 287.333C335.469 302.758 343.403 317.252 357.068 325.277V339.333C341.166 331.638 330.333 315.231 330.333 296.486C330.333 288.926 333.585 280.476 338.515 274.605C343.561 268.596 350.078 265 357.167 265C364.255 265 370.772 268.596 375.818 274.605C380.748 280.476 384 288.926 384 296.486C384 315.231 373.167 331.638 357.264 339.333V325.277C370.93 317.252 378.864 302.758 378.864 287.333C378.864 280.798 374.453 275.333 369.015 275.333C363.577 275.333 359.167 280.798 359.167 287.333C359.167 293.868 363.577 299.333 369.015 299.333C371.828 299.333 374.109 301.614 374.109 304.426C374.109 307.239 371.828 309.52 369.015 309.52C355.529 309.52 345.318 293.49 345.318 275.333Z"/>
  </g>

  <path d="M104 454C145 463 196 468 256 468C316 468 367 463 408 454" stroke="url(#gold)" stroke-width="12" stroke-linecap="round" opacity="0.72"/>
</svg>
