<svg width="512" height="512" viewBox="0 0 512 512" fill="none" xmlns="http://www.w3.org/2000/svg">
  <defs>
    <linearGradient id="bg" x1="76" y1="64" x2="436" y2="448" gradientUnits="userSpaceOnUse">
      <stop stop-color="#15523D"/>
      <stop offset="1" stop-color="#0A261D"/>
    </linearGradient>
    <linearGradient id="gold" x1="150" y1="122" x2="351" y2="356" gradientUnits="userSpaceOnUse">
      <stop stop-color="#F4DC82"/>
      <stop offset="1" stop-color="#C7A64A"/>
    </linearGradient>
  </defs>

  <rect x="32" y="32" width="448" height="448" rx="112" fill="url(#bg)"/>
  <path
    d="M160 177.584L208 129.584V274.917L160 241.584V177.584ZM304 161.584L352 209.584V241.584L304 274.917V161.584ZM224 113.584L272 65.584V173.584C272 180.211 266.627 185.584 260 185.584H224V113.584ZM224 201.584H260C266.627 201.584 272 206.957 272 213.584V338.917L224 305.584V201.584ZM288 173.584V97.584L336 145.584V185.584H300C293.373 185.584 288 180.211 288 173.584ZM288 213.584C288 206.957 293.373 201.584 300 201.584H336V305.584L288 338.917V213.584Z"
    fill="url(#gold)"
  />
  <path
    d="M129 250.75L255.999 344L383 250.75V304.5L255.999 398L129 304.5V250.75Z"
    fill="#F2EFE3"
    fill-opacity="0.96"
  />
  <path
    d="M145 253.117L255.999 334.646L367 253.117V290.922L255.999 372.451L145 290.922V253.117Z"
    fill="#0B2D22"
  />
</svg>
